<?xml version="1.0" encoding="UTF-8"?><svg id="Layer_2" xmlns="http://www.w3.org/2000/svg" viewBox="0 0 135.38 135.38"><defs><style>.cls-1{fill:#00354c;}.cls-2{fill:#ffab00;stroke:#ffab00;stroke-linecap:round;stroke-miterlimit:10;stroke-width:2px;}</style></defs><g id="Layer_1-2"><path class="cls-2" d="M134.38,67.69c0,36.83-29.86,66.69-66.69,66.69S1,104.52,1,67.69C1,47.71,9.79,29.78,23.71,17.56c.56-.5,1.13-.98,1.71-1.46C36.93,6.66,51.65,1,67.69,1c36.83,0,66.69,29.86,66.69,66.69Z"/><g id="Diver"><path class="cls-1" d="M103.1,90.28c-1.5,3.88-8.32,6.3-10.16,4.77-1.84-1.52-1.75-5.95-5.66-4.22-3.91,1.72-12.28,6.59-15.32,5-6.07-3.16-19.52-9.21-23.29-18.35-4.1-9.94-20.38-46.23-24.97-59.92,.56-.5,1.13-.98,1.71-1.46,2.6,1.86,8.63,9.32,13.64,17.98,1.37,2.37,2.44,4.9,3.24,7.52,1.66,5.42,9.79,14.51,15.76,17.43,9.12,4.47,4.87,13.04,8.61,17.53,4.62,5.55,13.32,1.72,13.32,1.72,0,0-4.88-10.41-1.8-17.32,3.09-6.91,9.33-18.43,10.36-18.88,1.47-.65-5.67,28.21-3.26,30.36,2.41,2.15,3.25,2.07,5.72,.4,2.47-1.68,3.44,.52,2.9,1.93-.55,1.41-4.96,5.98-3.93,6.99,1.03,1.01,1.6,1.63,2.68,1.45,1.09-.19,3.36-7.62,7.75-4.29,4.39,3.32,4.18,7.5,2.68,11.38Z"/></g></g></svg>