<?xml version="1.0" encoding="UTF-8"?><svg id="Layer_2" xmlns="http://www.w3.org/2000/svg" viewBox="0 0 106.94 81.44"><defs><style>.cls-1{fill:#fff;}</style></defs><g id="Homepage"><path id="Discord" class="cls-1" d="M102.16,29.44c-6.52-15.28-9.5-21.43-11.74-22.92-2.24-1.49-12.11-5.96-21.62-6.52l-2.98,5.22h-24.97l-2.61-5.22s-13.79,.75-20.5,5.22C11.03,9.69,3.95,29.82,2.83,35.03c-1.12,5.22-4.1,17.89-2.24,31.68,0,0,5.78,7.08,26.83,14.72l6.71-9.88s-4.29-1.12-9.5-4.66l2.24-1.68s11.74,6.34,25.34,6.34,28.32-6.34,28.32-6.34l1.49,1.68-9.13,4.66,6.52,9.88s4.66,.93,27.21-14.35c0,0,2.05-22.36-4.47-37.64ZM35.88,54.79c-4.94,0-8.94-4.56-8.94-10.19s4-10.19,8.94-10.19,8.94,4.56,8.94,10.19-4,10.19-8.94,10.19Zm35.28,0c-4.94,0-8.94-4.56-8.94-10.19s4-10.19,8.94-10.19,8.94,4.56,8.94,10.19-4,10.19-8.94,10.19Z"/></g></svg>