<?xml version="1.0" encoding="UTF-8"?><svg id="Layer_2" xmlns="http://www.w3.org/2000/svg" viewBox="0 0 106.94 106.94"><defs><style>.cls-1{fill:#fff;}</style></defs><g id="Homepage"><g id="Instagram"><path class="cls-1" d="M77.9,0H29.03C13,0,0,13,0,29.03v48.87c0,16.03,13,29.03,29.03,29.03h48.87c16.03,0,29.03-13,29.03-29.03V29.03c0-16.03-13-29.03-29.03-29.03Zm19.48,76.67c0,11.44-9.27,20.71-20.71,20.71H30.26c-11.44,0-20.71-9.27-20.71-20.71V30.26c0-11.44,9.27-20.71,20.71-20.71h46.41c11.44,0,20.71,9.27,20.71,20.71v46.41Z"/><path class="cls-1" d="M53.47,25.46c-15.47,0-28.01,12.54-28.01,28.01s12.54,28.01,28.01,28.01,28.01-12.54,28.01-28.01-12.54-28.01-28.01-28.01Zm0,46.47c-10.19,0-18.46-8.26-18.46-18.46s8.26-18.46,18.46-18.46,18.46,8.26,18.46,18.46-8.26,18.46-18.46,18.46Z"/><circle class="cls-1" cx="82.75" cy="24.82" r="6.37"/></g></g></svg>