<?xml version="1.0" encoding="UTF-8"?><svg id="Layer_2" xmlns="http://www.w3.org/2000/svg" viewBox="0 0 246.29 53.87"><defs><style>.cls-1,.cls-2{fill:#fff;}.cls-2{font-family:Calibri-Bold, Calibri;font-size:13px;letter-spacing:.03em;}</style></defs><g id="Layer_2-2"><g><g><path class="cls-1" d="M178.77,32.51c1.47,.73,3.08,.91,3.43,.59,.27-.26,.95-4.74,1.78-5.67,.56-.63,4.38-3.95,6.29-5.59-4.03,2.07-8.37,4.21-12.77,5.08-.17,.9-.55,2.01-.45,3.09,.13,1.32,.66,1.98,1.72,2.51Z"/><path class="cls-1" d="M144.7,35.89h3.41c1.8,0,3.31-.23,4.53-.69,1.23-.47,2.26-1.17,3.08-2.11s1.44-2.1,1.84-3.5c.41-1.39,.61-3.02,.61-4.88,0-.27,0-.54-.02-.81-5.34-2.67-8.82-6.16-13.45-7.6v19.59Z"/><path class="cls-1" d="M205.26,34.77h.03l5.03-16.17c-2.86-1.12-5.86-1.9-8.74-1.48-.57,.08-1.16,.23-1.76,.4l5.44,17.24Z"/><path class="cls-1" d="M238.97,18.41c-2.49,.9-5.72,2.09-8.91,3.03v.41h9.74c.15,0,.29,.04,.41,.14,.13,.09,.23,.23,.31,.42,.09,.19,.15,.45,.19,.77,.04,.33,.06,.72,.06,1.18,0,.49-.02,.88-.06,1.2-.04,.31-.1,.57-.19,.76-.08,.19-.18,.33-.31,.41-.12,.08-.26,.12-.41,.12h-9.74v9.09h11.61c.15,0,.28,.05,.41,.14,.12,.09,.23,.24,.31,.44,.08,.2,.15,.46,.19,.78s.06,.73,.06,1.21-.02,.88-.06,1.21c-.04,.32-.11,.58-.19,.78s-.19,.35-.31,.44c-.13,.09-.26,.13-.41,.13h-16.19c-.55,0-1.01-.16-1.38-.48-.37-.33-.56-.85-.56-1.58V22.88c-.71,.08-1.38,.11-1.98,.08-1.56-.07-3.55-.91-5.78-1.94l-6.36,18.91c-.08,.28-.19,.51-.32,.68-.14,.18-.35,.31-.65,.4-.3,.09-.71,.15-1.22,.18-.52,.02-1.19,.03-2.02,.03-.66,0-1.23,0-1.7,0-.48-.01-.88-.03-1.21-.06-.33-.04-.6-.08-.81-.15-.21-.07-.38-.15-.52-.25-.14-.1-.25-.22-.33-.36-.07-.14-.14-.32-.21-.54l-6.65-19.8c-.92,.46-1.86,.94-2.82,1.44-1.24,1.84-5.05,7.52-5.66,9.17-.73,1.98-.07,2.37,.72,2.31,.79-.07,3.09-.53,2.31,.59-.79,1.13-2.24,1.85-3.23,2.24-.99,.39,.26,1.39,.86,1.26,.59-.14,1.84-1.19,2.9-.99,1.05,.2,1.97,2.3,1.97,3.56s-1.18,1.58-2.5,2.31c-1.32,.72-1.78,.39-3.17,0-1.38-.4-1.38-2.71-1.38-2.71h-6.13c-1.32,0-7.19-10.61-7.39-11.21-.03-.09-.04-.4-.04-.84-1.96-.16-3.73-.45-5.34-.84-.13,2.16-.48,4.08-1.08,5.73-.77,2.1-1.88,3.82-3.33,5.14-1.44,1.33-3.2,2.31-5.26,2.93-2.07,.62-4.53,.93-7.39,.93h-7.69c-.55,0-1.01-.16-1.38-.48-.38-.33-.56-.85-.56-1.58V15.74c-5.42,.5-11.09,2.88-16.77,5.09-.14,.94-.37,1.81-.69,2.61-.57,1.4-1.39,2.57-2.47,3.53-1.08,.95-2.4,1.68-3.97,2.18-1.57,.49-3.41,.74-5.54,.74h-2.69v10.29c0,.16-.05,.31-.16,.45-.11,.13-.29,.24-.54,.32-.24,.08-.58,.15-.99,.2-.42,.05-.95,.07-1.6,.07s-1.15-.02-1.58-.07c-.42-.05-.76-.12-1.01-.2-.24-.08-.42-.19-.52-.32-.1-.14-.15-.29-.15-.45V23.99c-6.72-1.58-13.11-5.05-18.35-6.2v4.06h9.74c.15,0,.28,.04,.41,.14,.12,.09,.22,.23,.31,.42,.08,.19,.14,.45,.19,.77,.04,.33,.06,.72,.06,1.18,0,.49-.02,.88-.06,1.2-.05,.31-.11,.57-.19,.76-.09,.19-.19,.33-.31,.41-.13,.08-.26,.12-.41,.12h-9.74v9.09h11.6c.15,0,.29,.05,.41,.14,.13,.09,.23,.24,.32,.44,.08,.2,.14,.46,.18,.78,.04,.32,.06,.73,.06,1.21s-.02,.88-.06,1.21c-.04,.32-.1,.58-.18,.78-.09,.2-.19,.35-.32,.44-.12,.09-.26,.13-.41,.13h-16.18c-.55,0-1.01-.16-1.39-.48-.37-.33-.56-.85-.56-1.58V17.75c-5.27,.82-12.05,2.9-17.77,4.1h9.16c.15,0,.28,.04,.41,.14,.12,.09,.23,.23,.31,.42,.08,.19,.15,.45,.19,.77,.04,.33,.06,.72,.06,1.18,0,.49-.02,.88-.06,1.2-.04,.31-.11,.57-.19,.76-.08,.19-.19,.33-.31,.41-.13,.08-.26,.12-.41,.12h-9.74v9.09h11.61c.15,0,.28,.05,.41,.14,.12,.09,.22,.24,.31,.44,.08,.2,.14,.46,.18,.78,.05,.32,.07,.73,.07,1.21s-.02,.88-.07,1.21c-.04,.32-.1,.58-.18,.78-.09,.2-.19,.35-.31,.44-.13,.09-.26,.13-.41,.13h-16.19c-.55,0-1.01-.16-1.38-.48-.38-.33-.56-.85-.56-1.58V22.75c-1.83-.03-3.67-.34-5.53-.8,.09,.82,.15,1.65,.15,2.55,0,2.95-.39,5.48-1.16,7.58-.77,2.1-1.88,3.82-3.32,5.14-1.45,1.33-3.2,2.31-5.27,2.93s-4.53,.93-7.38,.93h-7.7c-.55,0-1.01-.16-1.38-.48-.37-.33-.56-.85-.56-1.58V16.68c-2.09,.06-4,.1-5.51,.12V53.81H234.32c6.61,0,11.97-5.36,11.97-11.97V17.14c-2.03,.06-4.75,.34-7.32,1.27Z"/><path class="cls-1" d="M106.05,24.84h2.94c1.05,0,1.92-.14,2.63-.43,.42-.17,.78-.39,1.11-.64-1.85,.48-3.69,.84-5.5,.97-.39,.03-.79,.02-1.18,.02v.08Z"/><path class="cls-1" d="M24.12,35.89h3.41c1.8,0,3.31-.23,4.54-.69,1.23-.47,2.25-1.17,3.07-2.11s1.44-2.1,1.84-3.5c.41-1.39,.62-3.02,.62-4.88,0-1.52-.18-2.94-.54-4.26-.09-.33-.2-.63-.31-.94-4.45-1.63-8.76-3.23-12.63-3.08v19.46Z"/></g><g><path class="cls-1" d="M43.3,17.74c-.72-1.94-1.76-3.57-3.13-4.89-1.37-1.32-3.05-2.32-5.05-2.99s-4.44-1.01-7.31-1.01h-8.27c-.55,0-1.01,.16-1.38,.49-.37,.32-.56,.85-.56,1.58v4.76c2-.06,4.18-.14,6.36-.25h.16v-1.45h3.31c2.01,0,3.64,.27,4.87,.81,1.24,.54,2.25,1.29,3.04,2.25,.32,.4,.61,.82,.86,1.27,2.6,.95,5.26,1.94,7.91,2.61-.18-1.14-.45-2.2-.81-3.18Z"/><path class="cls-1" d="M68.66,10.21c-.04-.33-.1-.59-.19-.8-.08-.21-.18-.35-.29-.44-.12-.08-.25-.12-.4-.12h-16.09c-.55,0-1.01,.16-1.38,.49-.38,.32-.56,.85-.56,1.58v10.83c.11,.01,.21,.01,.32,.01,1.75,0,3.88-.31,6.2-.79v-6.99h11.51c.15,0,.28-.05,.4-.14,.11-.09,.21-.23,.29-.43,.09-.2,.15-.46,.19-.79,.04-.32,.06-.72,.06-1.18,0-.5-.02-.91-.06-1.23Z"/><path class="cls-1" d="M93.54,10.21c-.04-.33-.11-.59-.19-.8-.08-.21-.18-.35-.3-.44-.11-.08-.25-.12-.4-.12h-16.08c-.55,0-1.01,.16-1.39,.49-.37,.32-.56,.85-.56,1.58v5.82c1.04-.16,2.03-.27,2.94-.32,1.12-.06,2.32,.08,3.59,.36v-2.8h11.5c.15,0,.29-.05,.4-.14,.12-.09,.22-.23,.3-.43,.08-.2,.15-.46,.19-.79,.04-.32,.06-.72,.06-1.18,0-.5-.02-.91-.06-1.23Z"/><path class="cls-1" d="M121.02,15.09c-.37-1.06-.9-1.98-1.6-2.77-.69-.78-1.54-1.44-2.52-1.95-.99-.52-1.97-.87-2.93-1.06-.96-.19-1.79-.31-2.48-.37s-1.41-.09-2.18-.09h-7.59c-.67,0-1.2,.2-1.61,.58-.4,.4-.61,.98-.61,1.76v11.81c2.16,.51,4.35,.82,6.55,.79V13.9h2.79c.68,0,1.34,.05,1.98,.14,.64,.09,1.25,.31,1.83,.66,.58,.35,1.07,.89,1.47,1.62,.4,.73,.6,1.66,.6,2.79,0,.83-.12,1.6-.35,2.3-.12,.38-.28,.73-.47,1.05,2.53-.72,5.08-1.67,7.63-2.67,.03-.37,.04-.76,.04-1.15,0-1.31-.19-2.5-.55-3.55Z"/><path class="cls-1" d="M163.88,17.74c-.72-1.94-1.76-3.57-3.13-4.89s-3.05-2.32-5.05-2.99c-2.01-.67-4.44-1.01-7.31-1.01h-8.27c-.55,0-1.01,.16-1.38,.49-.38,.32-.56,.85-.56,1.58v3.8c.9-.08,1.79-.11,2.68-.08,1.39,.05,2.65,.29,3.84,.66v-1.32h3.31c2.01,0,3.63,.27,4.87,.81,1.24,.54,2.25,1.29,3.04,2.25,.79,.97,1.36,2.1,1.72,3.41,.2,.77,.35,1.57,.43,2.41,1.98,1,4.21,1.88,6.86,2.51,.02-.29,.02-.58,.02-.88,0-2.56-.36-4.81-1.07-6.75Z"/><path class="cls-1" d="M197.42,9.92c-.09-.25-.17-.46-.26-.62-.1-.17-.26-.29-.49-.38-.23-.08-.56-.14-1-.17-.43-.03-1.03-.05-1.79-.05-.89,0-1.59,.02-2.09,.06-.5,.04-.85,.15-1.06,.33-.21,.17-.29,.43-.25,.78,.04,.35,.16,.82,.36,1.42l2.65,7.9c2.14-1.07,4.17-2.01,6.04-2.58l-2.11-6.69Zm21.85-.78c-.16-.19-.45-.32-.87-.36-.43-.05-1.02-.08-1.78-.08s-1.4,.02-1.85,.05c-.44,.03-.79,.1-1.03,.2-.24,.1-.41,.24-.51,.41-.1,.17-.18,.4-.25,.69l-2.38,7.65c1.92,.77,3.77,1.68,5.47,2.45l2.96-8.81c.2-.58,.33-1.05,.39-1.39,.06-.35,.01-.62-.15-.81Z"/><path class="cls-1" d="M242.45,10.21c-.04-.33-.1-.59-.18-.8-.09-.21-.19-.35-.3-.44-.12-.08-.25-.12-.4-.12h-16.09c-.55,0-1.01,.16-1.38,.49-.37,.32-.56,.85-.56,1.58v10.95c1.94-.19,4.22-.74,6.52-1.43v-6.46h11.51c.15,0,.28-.05,.4-.14,.11-.09,.21-.23,.3-.43,.08-.2,.14-.46,.18-.79,.04-.32,.06-.72,.06-1.18,0-.5-.02-.91-.06-1.23Z"/></g><path class="cls-1" d="M177.58,25.9c-1.36,.27-2.72,.43-4.09,.42-1.15-.01-2.23-.05-3.27-.13,.05-2.99,.34-8.66,.44-9.71,.13-1.38,.53-2.57,.59-4.68,.05-1.53,0-11.8,0-11.8,0,0,1.58,3.23,1.85,3.76,.26,.53,0,.72-.13,1.85-.14,1.12,.46,2.7,.85,3.82,.4,1.12,.6,2.57,.27,3.63-.33,1.05-.92,2.66-.27,3.89,1.26,2.37,1.32,4.81,1.32,4.81,2.37,1.48,2.45,3.12,2.44,4.14Z"/><text class="cls-2" transform="translate(10.61 53.87) rotate(-90)"><tspan x="0" y="0">TRADER</tspan></text></g></g></svg>