<?xml version="1.0" encoding="UTF-8"?><svg id="Layer_2" xmlns="http://www.w3.org/2000/svg" viewBox="0 0 384.41 384.41"><defs><style>.cls-1{stroke-width:4px;}.cls-1,.cls-2,.cls-3{fill:none;stroke:#fbb03b;stroke-miterlimit:10;}.cls-2{stroke-width:2px;}.cls-2,.cls-3{stroke-linecap:round;}.cls-4{fill:#fbb03b;}.cls-3{stroke-width:3px;}</style></defs><g id="Waves_Cloud"><path class="cls-3" d="M56.43,169.78c-1.11-5.92,.02-14.79,4.76-19.39,12.59-12.22,31.14-7.36,34.11-13.29s-9.95-6.84-19.99-6.29c-13.7,.74-32.58,20.74-43.69,22.59-7.53,1.25-12.96-4.07-12.96-4.07"/><path class="cls-3" d="M12.72,185.61s10.37,5.18,21.48-1.48,17.4-12.96,27.03-15.92,14.61,5.74,6.66,10.37c-7.05,4.11-23.84,11.93-19.62,37.03,2.32,13.82,10.74,25.55,41.1,26.29"/><path class="cls-3" d="M25.68,258.56s13.65,11.58,27.4,8.15,20.74-9.63,42.95-30.36c0,0,17.62-17.05,41.03-15.96"/><path class="cls-3" d="M142.74,230.47s-3.77-.06-10.8,2.17c-7.04,2.22-15.55,5.92-14.44,17.03"/><path class="cls-3" d="M86.03,261.89s8.15,1.11,18.14-4.81c10-5.92,17.4-11.48,28.14-8.52,10.74,2.96,11.11,7.04,10.74,9.63s-5.55,1.11-13.33,1.48-16.29,3.7-16.66,10.74,6.29,9.26,6.29,9.26"/><path class="cls-3" d="M87.51,293.73s7.94,.81,12.96-.37c7.8-1.84,16.58-13.32,22.59-16.29,8.08-4,13.91-.36,13.7,2.59-.37,5.18-7.78,0-11.48,4.44-2.37,2.84-16.29,26.66,22.22,29.99"/><path class="cls-3" d="M88.99,340.02s10.29,3.74,23.7-2.96c13.33-6.66,27.03-19.99,37.4-24.07s25.92-7.41,39.99-4.81c14.07,2.59,22.96,10.37,22.96,12.22s1.48,7.04-12.22,1.48c-13.7-5.55-29.62-5.18-38.14,0-8.52,5.18-17.4,17.4-.74,23.7"/><path class="cls-3" d="M272.21,272.5s.07,4.94,6,1.6,22.22-17.4,33.69,3.7"/><path class="cls-3" d="M371.7,224.49s-16.11,42.95-39.06,41.1c-22.96-1.85-14.47-12.42-37.43-12.42"/><path class="cls-3" d="M125.28,359.64s11.09,.32,19.99-2.96c14.07-5.18,17.77-14.81,29.25-20.37,7.49-3.62,20.37-4.44,22.96,5.18,1.25,4.65-6.29,1.85-13.7,3.7-5.79,1.45-13.7,14.81-2.22,27.03"/><path class="cls-3" d="M317.45,323.35s4.07-22.96-5.55-28.14c-9.63-5.18-17.03-2.96-25.18-1.48-8.15,1.48-3.7-10.37,7.04-14.07,10.74-3.7,26.1-.56,42.95,.37,15.16,.83,20.18-9.07,20.18-9.07"/><path class="cls-3" d="M345.96,211.53s-7.78,3.7-15.18-.74-15.92-17.77-28.14-14.44-3.7,9.26,6.66,13.33c10.37,4.07,27.49,18.62,21.52,55.78"/><path class="cls-3" d="M369.66,156.36s-3.33,20.37-21.11,23.7c-17.77,3.33-47.21-26.84-62.76-27.96s-21.85,6.29-20.18,10.18c2.9,6.76,25.97-2,35.73,10.92,6.85,9.07,6.66,22.59,6.66,22.59"/><path class="cls-2" d="M241.17,366.31s-46.28,3.33-40.36-44.43"/><path class="cls-2" d="M225.81,370.19s-19.62-1.48-28.51-22.22"/><path class="cls-2" d="M213.96,372.41s-14.07-1.85-22.59-24.07"/><path class="cls-2" d="M201.74,373.16s-11.85-6.29-16.29-22.96"/><path class="cls-2" d="M191.74,372.41s-7.04-7.04-9.26-17.4"/><path class="cls-2" d="M171.75,371.67s-7.04-8.15-.37-22.22"/><path class="cls-2" d="M164.34,370.93s-3.7-8.89-1.11-16.29"/><path class="cls-2" d="M156.94,369.08s-3.33-4.44-1.48-9.26"/><path class="cls-2" d="M156.94,332.8s1.11,5.92,3.7,7.41"/><path class="cls-2" d="M160.27,328.72s1.7,9.16,6.66,11.48"/><path class="cls-2" d="M166.19,324.65s.9,9.72,6.29,12.59"/><path class="cls-2" d="M173.23,322.8s1.14,7.74,4.09,12.39"/><path class="cls-2" d="M179.89,321.32s0,8.89,2.59,12.59"/><path class="cls-2" d="M188.04,321.69s-1.48,5.92,.37,12.22"/><path class="cls-2" d="M193.96,323.91s-1.75,4.03,.47,12.55"/><path class="cls-2" d="M143.61,328.35s-4.37,17.1,12.81,22.07"/><path class="cls-2" d="M138.05,338.35s1.61,13.75,12.96,15.18"/><path class="cls-2" d="M131.39,334.28s-.91,3.11,.48,7.65"/><path class="cls-2" d="M133.61,346.5s1.82,6.31,11.66,10.18"/><path class="cls-2" d="M127.69,344.27s.75,7.59,10.37,14.35"/><path class="cls-2" d="M121.76,340.94s-.83,8.78,8.29,18.46"/><path class="cls-2" d="M115.47,342.42s-.37,6.29,4.44,11.85"/><path class="cls-2" d="M107.4,345.29s1.05,3.96,4.36,7.87"/><path class="cls-2" d="M159.16,248s-9.26,18.37,1.48,29.62c7.78,8.15,26.66,18.14,45.54,17.4,20.84-.82,38.88-7.96,55.17-24.07"/><path class="cls-2" d="M153.58,242.02s-11.83,21.9-.35,38.2"/><path class="cls-2" d="M158.79,286.14s8.15,12.22,37.77,14.07"/><path class="cls-2" d="M205.81,300.21s39.62,0,60.72-27.4"/><path class="cls-2" d="M141.39,266.52s1.85,24.07,32.95,37.03"/><path class="cls-2" d="M201,306.88s40.36,2.96,69.61-29.99"/><path class="cls-2" d="M134.72,263.92s0,7.04,1.48,9.63"/><path class="cls-2" d="M141.02,281.7s9.64,20.46,28.89,26.01"/><path class="cls-2" d="M137.31,286.51s7.57,15.79,23.6,22.89"/><path class="cls-2" d="M132.87,290.58s8.52,16.66,20.74,20.74"/><path class="cls-2" d="M128.06,292.44s1.11,8.15,11.85,15.55"/><path class="cls-2" d="M125.09,297.25s1.11,4.44,5.55,8.52"/><path class="cls-2" d="M127.69,264.67s.82,6.7,3.93,10.75"/><path class="cls-2" d="M121.76,264.67s.37,6.29,3.7,10.37"/><path class="cls-2" d="M117.69,267.63s0,5.92,5.37,9.44"/><path class="cls-2" d="M275.43,280.22s-16.29,26.29-60.72,32.58"/><path class="cls-2" d="M287.27,274.29s-1.11,3.7-8.52,11.85"/><path class="cls-2" d="M272.83,291.32s-12.22,19.25-52.95,27.03"/><path class="cls-2" d="M278.39,296.14s-7.78,9.63-21.85,16.66"/><path class="cls-2" d="M245.8,318.35s-11.11,4.81-24.07,6.29"/><path class="cls-2" d="M283.94,299.47s-14.07,20.74-47.4,28.51"/><path class="cls-2" d="M231.1,329.21s-8.31,1.85-24.54,1.74"/><path class="cls-2" d="M295.05,297.25s-7.04,14.07-29.25,27.03"/><path class="cls-2" d="M258.76,327.61s-11.11,10.37-49.99,9.63"/><path class="cls-2" d="M302.83,300.95s-8.89,15.92-32.21,28.51"/><path class="cls-2" d="M260.24,334.65s-18.51,9.63-47.77,9.26"/><path class="cls-2" d="M310.23,302.8s-1.48,5.55-7.41,11.11"/><path class="cls-2" d="M297.27,318.72s-4.81,6.29-16.66,13.7"/><path class="cls-2" d="M272.09,337.61s-14.81,12.22-55.17,12.96"/><path class="cls-2" d="M311.34,312.43s-12.22,26.29-58.13,39.62"/><path class="cls-2" d="M242.47,354.64s-10,1.85-20.74,1.85"/><path class="cls-2" d="M311.34,322.8s-22.22,35.18-73.68,38.51"/><path class="cls-2" d="M113.62,293.18s-2.22,23.33,25.55,25.92"/><path class="cls-2" d="M108.43,303.17s0,17.77,23.18,21.46"/><path class="cls-2" d="M100.66,304.65s-.45,7.55,5.55,14.55"/><path class="cls-2" d="M109.21,322.21s5,5,15.15,7.26"/><path class="cls-2" d="M91.77,306.51s4.07,22.59,25.92,27.4"/><path class="cls-2" d="M79.92,300.95s8.89,33.69,31.84,36.29"/><path class="cls-2" d="M69.55,275.4s-3.08,46.82,31.79,65.25"/><path class="cls-2" d="M62.89,279.48s-3.7,35.55,18.88,53.69"/><path class="cls-2" d="M56.22,279.48s0,7.04,.37,10.74"/><path class="cls-2" d="M56.96,295.4s0,10.74,4.81,19.62"/><path class="cls-2" d="M51.41,286.88s-2.22,9.63,1.48,18.14"/><path class="cls-2" d="M45.86,284.66s-1.85,2.59-.37,11.11"/><path class="cls-2" d="M40.67,270.59s-1.85,3.33-1.11,10.37"/><path class="cls-2" d="M76.22,280.22s0,8.52,1.85,14.44"/><path class="cls-2" d="M80.29,280.59s0,7.04,3.7,10"/><path class="cls-2" d="M84.36,272.44s-.27,16.02,8.38,21.34"/><path class="cls-2" d="M90.29,277.99s1.48,11.11,11.48,14.44"/><path class="cls-2" d="M95.55,274.55s-1.34,10.66,10.66,15.66"/><path class="cls-2" d="M100.29,270.96s-1.48,10.37,10.37,15.55"/><path class="cls-2" d="M105.47,265.41s-2.96,11.85,9.26,17.4"/><path class="cls-2" d="M145.46,241.71s-4.91,4.69-4.17,10.62"/><path class="cls-2" d="M137.68,241.34s-2.5,3.6-2.36,7.91"/><path class="cls-2" d="M132.5,239.12s-3.48,4.18-3.04,8.57"/><path class="cls-2" d="M126.58,239.12s-2.82,3.19-1.76,7.94"/><path class="cls-2" d="M113.25,237.64s-5.48,9.38,.59,13.76"/><path class="cls-2" d="M105.47,247.26s-.1,4.52,3.1,7.26"/><path class="cls-2" d="M99.92,245.78s-1.48,7.04,3.33,11.48"/><path class="cls-2" d="M94.73,250.22s1.1,7.62,4.07,9.18"/><path class="cls-2" d="M89.92,252.82s-1.03,5.58,2.63,8.35"/><path class="cls-2" d="M21.79,235.04s5.55,26.29,31.29,31.66"/><path class="cls-2" d="M25.49,211.35s0,5.18,1.48,12.59"/><path class="cls-2" d="M29.19,230.6s6.29,23.91,34.06,32.32"/><path class="cls-2" d="M32.9,200.98s-1.32,6.05-.72,12.98"/><path class="cls-2" d="M32.9,219.86s3.7,28.51,38.88,37.03"/><path class="cls-2" d="M39.93,199.87s-5.92,44.06,42.21,48.88"/><path class="cls-2" d="M55.48,222.82s8.29,14.58,39.39,14.21"/><path class="cls-2" d="M52.15,209.86s11.11,22.96,47.4,22.96"/><path class="cls-2" d="M54,199.5s5.55,26.66,51.1,29.99"/><path class="cls-2" d="M57.7,192.46s4.07,27.4,52.95,34.07"/><path class="cls-2" d="M62.7,187.71s4.88,28.02,54.53,35.74"/><path class="cls-2" d="M68.11,183.49s.66,26.9,55.14,35.26"/><path class="cls-2" d="M87.15,140.88s-12.29,10.31-13.77,25.86"/><path class="cls-2" d="M73.51,180.72s1.98,26.64,55.28,32.84"/><path class="cls-2" d="M76.22,147.66s-6.66,8.89-7.04,20.37"/><path class="cls-2" d="M68.44,150.62s-3.49,8.04-3.04,16.79"/><path class="cls-2" d="M61.41,156.92s-1.48,5.55-.37,10.74"/><path class="cls-2" d="M53.63,151.73s-4.44,7.41-1.85,19.99"/><path class="cls-2" d="M46.6,154.69s-2.36,1.4-2.46,5.66"/><path class="cls-2" d="M44.04,166.78s-.2,4.32,2.18,8.65"/><path class="cls-2" d="M38.83,158.7s-1.12,2.14-1.02,5.21"/><path class="cls-2" d="M38.31,170.57s0,5.01,3.48,8.19"/><path class="cls-2" d="M32.37,162.52s-.59,2.27-.49,4.75"/><path class="cls-2" d="M32.5,174s.4,4.48,4.1,7.73"/><path class="cls-2" d="M25.86,169.13s-.74,10,5.18,15.92"/><path class="cls-2" d="M20.11,163.71s-1.64,14.03,4.28,23.43"/><path class="cls-2" d="M14.38,174.69s-.72,6,2.97,12.26"/><path class="cls-2" d="M37.34,102.49s24.44,19.99,37.4-10.74"/><path class="cls-2" d="M69.18,102.49s8.15,4.81,17.03-.74"/><path class="cls-2" d="M79.47,95.16s-.73,5.12-5.67,8.58"/><path class="cls-2" d="M42.15,98.41s15.18,14.44,26.66-5.18"/><path class="cls-2" d="M46.6,94.71s16.29,8.89,19.25-10.37"/><path class="cls-2" d="M77.12,77.82s-.17,3.19-.91,8.75"/><path class="cls-2" d="M94.5,71.71s25.39,1.18,15.04,23.37"/><path class="cls-2" d="M105.84,81.01s2.66,4.77,.77,8.87"/><path class="cls-2" d="M286.16,105.08s35.18,36.29,67.39,2.96"/><path class="cls-2" d="M292.46,99.52s34.44,29.62,55.91,1.11"/><path class="cls-2" d="M305.05,97.3s23.33,18.88,39.25-4.44"/><path class="cls-2" d="M320.97,95.45s11.48,3.7,17.03-8.52"/><path class="cls-2" d="M202.11,33.61s-27.03-7.41-26.29,14.81c.6,17.86,24.07,12.59,24.07,12.59"/><path class="cls-2" d="M215.44,13.25s-8.15,4.81-11.48,16.29"/><path class="cls-2" d="M207.67,12.88s-9.63,7.41-10.28,19.67"/><path class="cls-2" d="M195.08,46.57s-1.48,19.62,21.48,19.99"/><path class="cls-2" d="M181.01,45.09s-.74,13.33,15.55,11.48"/><path class="cls-2" d="M188.78,48.05s.37,4.07,6.29,3.7"/><path class="cls-2" d="M201.74,47.68s.74,13.33,14.07,13.33"/><path class="cls-2" d="M208.78,48.05s0,7.04,7.41,6.29"/><path class="cls-2" d="M209.89,41.76s0-12.22,13.7-12.22,12.96,17.4,12.96,17.4"/><path class="cls-2" d="M234.32,26.95s9.26,4.81,7.41,19.25"/><path class="cls-2" d="M237.67,29.52s4.81-8.13,15.54-8.13"/><path class="cls-2" d="M240.59,34.21s3.73-4.3,7.06-5.78"/><path class="cls-2" d="M207.23,65.6s1.62,19.93,28.21,19.48c21.85-.37,29.62-19.99,29.62-19.99"/><path class="cls-2" d="M258.39,60.64s1.48-1.48,1.48-11.48"/><path class="cls-2" d="M251.73,43.61s5.56,15.56-5.55,27.03c-11.85,12.22-26.66-1.48-26.66-1.48"/><path class="cls-2" d="M266.54,61.01s1.48-2.59,1.11-9.26"/><path class="cls-2" d="M216.18,73.23s10.08,10.35,24.81,6.66c8.89-2.22,12.96-7.04,16.29-14.81"/><path class="cls-2" d="M272.83,29.91s2.96,3.7,2.96,10.37"/><path class="cls-2" d="M276.17,46.2s1.48,13.33-5.55,24.07"/><path class="cls-2" d="M284.68,35.47s1.48,3.7,1.48,10.74"/><path class="cls-2" d="M293.2,41.02s2.96,16.29-5.92,29.99"/><path class="cls-2" d="M299.49,55.09s1.11,9.26-4.81,17.03"/><path class="cls-2" d="M312.82,59.53s-5.55,2.59-8.15,11.11"/><path class="cls-2" d="M276.17,166.17s12.06,21.72,6.03,56.22"/><path class="cls-2" d="M281.9,166.14s12.63,25.71,6.29,60.34"/><path class="cls-2" d="M288.64,166.44s6.78,12.7,7.15,28.25"/><path class="cls-2" d="M296.53,210.23s.37,7.78-.37,13.33"/><path class="cls-2" d="M302.83,218.38s0,24.44-6.29,34.07"/><path class="cls-2" d="M309.12,219.86s.74,4.07,.37,9.26"/><path class="cls-2" d="M308.75,235.41s.37,6.66-4.44,18.14"/><path class="cls-2" d="M315.78,229.12s1.03,2.5-.56,10.42"/><path class="cls-2" d="M314.17,244.55s-.74,3.68-3.94,11.23"/><line class="cls-2" x1="321.34" y1="231.34" x2="321.29" y2="238.48"/><path class="cls-2" d="M320.6,243.93s-1.15,9.32-3.7,16.29"/><path class="cls-2" d="M326.15,240.23s.74,10.74-2.22,23.33"/><path class="cls-2" d="M331.34,220.23s7.92,8.41,7.11,44.93"/><path class="cls-2" d="M338.74,223.19s1.22,1.88,2.33,6.32"/><path class="cls-2" d="M342.44,235.41s2.22,3.7,2.22,26.66"/><path class="cls-2" d="M347.01,231.36s2.03,2.41,2.77,6.86"/><path class="cls-2" d="M350.44,244.28s.61,3.33,.52,13.72"/><path class="cls-2" d="M351.7,228.38s4.54,5.24,5.79,22.43"/><path class="cls-2" d="M353.92,216.9s7.41,9.63,8.89,25.55"/><path class="cls-2" d="M356.89,209.49s8.89,7.78,11.85,22.59"/><path class="cls-2" d="M362.81,205.79s4.44,5.55,7.41,10"/><path class="cls-2" d="M365.03,175.43s5.92,11.48,6.66,19.62"/><path class="cls-2" d="M357.63,182.46s5.92,6.66,6.66,15.18"/><path class="cls-2" d="M352.15,186s4.73,6.46,4.73,14.98"/><path class="cls-2" d="M345.04,186.91s3.29,4.1,4.21,8.85"/><path class="cls-2" d="M350.04,199.84s.66,3.16,.55,9.65"/><path class="cls-2" d="M337.38,185.6s7.65,10.81,5.06,26.48"/><path class="cls-2" d="M335.04,200.98s.68,5.66-.4,11.16"/><path class="cls-2" d="M327.23,182.57s2.14,13.43-.21,25.18"/><path class="cls-2" d="M318.39,177.29s3.96,9.63,2.77,25.18"/><path class="cls-2" d="M302.46,165.8s14.09,11.76,11.67,31.98"/><path class="cls-2" d="M300.97,184.69s2.22,5.55,1.67,11.66"/><path class="cls-2" d="M298.01,270.59s-1.34,5.7-5.86,9.52"/><line class="cls-2" x1="303.2" y1="272.07" x2="301.82" y2="278.06"/><path class="cls-2" d="M312.82,267.26s5.07,5.52,7.17,11.09"/><path class="cls-2" d="M324.67,272.07s2.53,3.58,2.93,7.16"/><path class="cls-2" d="M330.97,270.59s3.21,6.6,3.08,9.22"/><path class="cls-2" d="M336.1,266.04s4.38,5.18,5.6,13.06"/><path class="cls-2" d="M345.43,267.23s2.2,3.73,2.57,10.77"/><path class="cls-2" d="M351.89,263.14s2.5,3.5,2.08,11.4"/><path class="cls-2" d="M356.9,258.79s1.84,2.91,1.84,6.99"/><line class="cls-2" x1="361.38" y1="253.78" x2="362.31" y2="257.47"/><path class="cls-2" d="M316.53,290.21s11.48,7.78,7.41,25.55"/><path class="cls-2" d="M331.71,290.21s4.44,5.18,3.7,14.44"/><path class="cls-2" d="M338,288.73s2.59,2.96,2.59,8.89"/><path class="cls-2" d="M342.81,283.92s2.22,3.33,2.22,6.29"/><path class="cls-2" d="M263.21,78.79s-22.96,25.55-52.95,4.81"/><path class="cls-2" d="M276.91,74.34s-11.11,17.77-29.99,23.33c-11.61,3.42-26.29,2.96-39.99-6.29"/><path class="cls-2" d="M283.94,75.46s8.7,6.11,1.48,13.33c-7.22,7.22-17.4-2.59-17.4-2.59"/><path class="cls-2" d="M286.9,80.27s-3.33,5.18-7.78,1.11"/><path class="cls-2" d="M262.84,90.27s17.77,13.33,26.66,2.59c6.23-7.53,5.18-15.18,.74-19.25-3.8-3.48-9.63-4.44-9.63-4.44,5.55-11.85,4.07-17.4,4.07-17.4"/><path class="cls-2" d="M303.94,74.71c.13,.41-2.59,12.59,11.48,18.88"/><path class="cls-2" d="M324.81,290.21s6.12,6.11,5.26,20.55"/></g><g id="Outline"><path class="cls-1" d="M382.41,192.21c0,105.05-85.16,190.21-190.21,190.21S2,297.25,2,192.21c0-56.99,25.06-108.12,64.76-142.98,1.61-1.42,3.24-2.8,4.89-4.15C104.47,18.16,146.45,2,192.21,2c105.05,0,190.21,85.16,190.21,190.21Z"/></g><g id="Diver"><g><path class="cls-4" d="M293.21,233.3c-27.75,7.59-30.09,20.24-30.09,26.07,0,4.06,2.74,9.68,4.41,12.74,7.55,.9,22.04-5.49,25.67-14.85,3.08-7.95,4.25-16.35,0-23.96Z"/><path class="cls-4" d="M262.7,249c-2.28-.41-6.39-1.17-13.77-2.57-11.44-2.17-54.11-15.17-37.33-15.28,13.5-.09,21.17-3.27,23.67-4.51,.31-.16,.61-.32,.91-.49,0,0-.31,.19-.91,.49-9.36,5.04-17.78,7.29-17.78,7.29,24.47,9.32,42.4,11.54,47.31,12,8.93-11.08,23.83-14.6,26.75-15.19-1.53-2.06-3.49-4.04-5.99-5.93-12.51-9.48-18.99,11.71-22.09,12.24-3.1,.53-4.72-1.25-7.65-4.12-2.93-2.87,9.64-15.92,11.2-19.94,1.56-4.02-1.21-10.3-8.27-5.52-7.06,4.78-9.46,5-16.33-1.13-6.87-6.13,13.48-88.43,9.29-86.58-2.96,1.31-20.76,34.15-29.56,53.86-8.8,19.71,5.12,49.4,5.12,49.4,0,0-24.82,10.93-37.99-4.91-10.64-12.8,1.47-37.24-24.55-49.99-13.08-6.41-29.82-23.22-39.01-37.68-13.5,8.59-15.64,25.62-15.64,25.62-.72-13.61,10.39-25.82,14.05-28.21-1.97-3.39-3.47-6.59-4.35-9.44-2.28-7.47-5.33-14.68-9.25-21.44-14.3-24.68-31.49-45.97-38.9-51.27-1.65,1.35-3.28,2.74-4.89,4.15,13.08,39.06,59.53,142.57,71.21,170.91,10.75,26.08,49.1,43.33,66.41,52.35,8.66,4.51,32.53-9.35,43.69-14.27,10.05-4.44,10.84,5.36,14.73,10.53-1.73-3.79-4.91-11.9-.11-20.37Zm-35.6-44.5s-4.57-10.87-3.48-21.46c1.08-10.58,8.3-17.05,8.3-17.05,0,0-4.23,8.55-5.38,17.47-1.24,9.63,.57,21.04,.57,21.04Zm-51.27-3.66c-.33,2.98-.51,5.37-.51,5.37,0,0-1.28-1.7-1.28-5.55,0-5.9,.14-9.47-1.58-13.86-1.72-4.39-3.76-8.44-7.58-11.25-4.09-3-5-4.17-5-4.17,0,0,2.22,1.31,5,2.58,4.35,2,8.25,6.08,10.67,11.75,2.21,5.18,.64,11.9,.29,15.13Z"/></g></g></svg>