<?xml version="1.0" encoding="UTF-8"?><svg id="Layer_2" xmlns="http://www.w3.org/2000/svg" viewBox="0 0 106.89 86.69"><defs><style>.cls-1{fill:#fff;}</style></defs><g id="Homepage"><path id="Twitter" class="cls-1" d="M106.89,10.44c-5.93,2.63-11.19,3.07-11.19,3.07,9.22-7.9,7.9-11.63,7.9-11.63-6.36,3.03-10.57,4.44-13.59,4.88-3.95-4.16-9.53-6.76-15.73-6.76-11.98,0-21.7,9.71-21.7,21.7,0,1.65,.19,3.25,.54,4.79C26.68,27.17,7.68,3.86,7.68,3.86-.88,21.86,13.83,33.49,13.83,33.49c-2.63-.22-9-2.85-9-2.85,.44,17.56,16.68,21.73,16.68,21.73-3.07,.88-9,.44-9,.44,5.27,15.36,19.53,15.14,19.53,15.14C18,78.92,0,76.95,0,76.95c10.75,5.49,16.9,8.78,33.36,9.66,16.46,.88,34.24-5.27,48.95-22.17,14.71-16.9,14.27-42.58,14.27-42.58,9.88-8.78,10.32-11.41,10.32-11.41Z"/></g></svg>