<?xml version="1.0" encoding="UTF-8"?><svg id="Layer_2" xmlns="http://www.w3.org/2000/svg" viewBox="0 0 27.44 26.9"><defs><style>.cls-1{fill:#fff;}</style></defs><g id="Who"><g id="Target_Icon"><g><path class="cls-1" d="M12.11,4.69c5.57,0,10.11,4.53,10.11,10.11s-4.53,10.11-10.11,10.11S2,20.37,2,14.8,6.53,4.69,12.11,4.69m0-2C5.42,2.69,0,8.11,0,14.8s5.42,12.11,12.11,12.11,12.11-5.42,12.11-12.11S18.79,2.69,12.11,2.69h0Z"/><path class="cls-1" d="M12.11,8.8c3.31,0,5.99,2.69,5.99,5.99s-2.69,5.99-5.99,5.99-5.99-2.69-5.99-5.99,2.69-5.99,5.99-5.99m0-1c-3.86,0-6.99,3.13-6.99,6.99s3.13,6.99,6.99,6.99,6.99-3.13,6.99-6.99-3.13-6.99-6.99-6.99h0Z"/><path class="cls-1" d="M12.11,12.84c1.08,0,1.96,.88,1.96,1.96s-.88,1.96-1.96,1.96-1.96-.88-1.96-1.96,.88-1.96,1.96-1.96m0-1c-1.63,0-2.96,1.32-2.96,2.96s1.32,2.96,2.96,2.96,2.96-1.32,2.96-2.96-1.32-2.96-2.96-2.96h0Z"/><path class="cls-1" d="M23.25,1.52l2.63,2.63-9.39,6.42L23.25,1.52m-.11-1.52L12.11,14.8,27.44,4.3,23.14,0h0Z"/></g></g></g></svg>