<?xml version="1.0" encoding="UTF-8"?><svg id="Layer_2" xmlns="http://www.w3.org/2000/svg" viewBox="0 0 39.23 24.71"><defs><style>.cls-1{fill:#fff;}</style></defs><g id="Who"><g id="Qutote_Icon"><path class="cls-1" d="M9.1,2c3.92,0,7.1,3.19,7.1,7.1,0,1.07-.23,2.1-.69,3.06v.03s-.02,.03-.02,.03c-2.16,4.87-4.3,7.49-6.01,8.89,.34-.85,.6-1.69,.77-2.53l.46-2.2-2.24-.2c-3.63-.32-6.47-3.43-6.47-7.07,0-3.92,3.19-7.1,7.1-7.1m0-2C4.08,0,0,4.08,0,9.1c0,4.75,3.64,8.65,8.29,9.06-.36,1.73-1.23,3.93-3.11,6.47,0,0,.27,.07,.74,.07,1.82,0,6.7-1.09,11.4-11.69,.57-1.19,.89-2.52,.89-3.92C18.2,4.08,14.13,0,9.1,0h0Z"/><path class="cls-1" d="M30.13,2c3.92,0,7.1,3.19,7.1,7.1,0,1.07-.23,2.1-.69,3.06v.03s-.02,.03-.02,.03c-2.16,4.87-4.3,7.49-6.01,8.89,.34-.85,.6-1.7,.77-2.53l.46-2.2-2.24-.2c-3.63-.32-6.47-3.43-6.47-7.07,0-3.92,3.19-7.1,7.1-7.1m0-2c-5.03,0-9.1,4.08-9.1,9.1,0,4.75,3.64,8.65,8.29,9.06-.36,1.73-1.23,3.93-3.11,6.47,0,0,.27,.07,.74,.07,1.82,0,6.7-1.09,11.4-11.69,.57-1.19,.89-2.52,.89-3.92,0-5.03-4.08-9.1-9.1-9.1h0Z"/></g></g></svg>